HIERARCHY
ROOT reference
{
	OFFSET 0.000000 0.000000 0.000000
	CHANNELS 6 Xposition Yposition Zposition Xrotation Yrotation Zrotation
	JOINT root
	{
		OFFSET 0.000000 86.207802 0.000000
		CHANNELS 3 Xrotation Yrotation Zrotation
		JOINT Hips
		{
			OFFSET 0.000000 0.000000 0.000000
			CHANNELS 3 Xrotation Yrotation Zrotation
			JOINT Spine
			{
				OFFSET 0.020216 -0.106232 -0.016763
				CHANNELS 3 Xrotation Yrotation Zrotation
				JOINT Spine1
				{
					OFFSET -5.146680 17.765404 1.534380
					CHANNELS 3 Xrotation Yrotation Zrotation
					JOINT Spine2
					{
						OFFSET -4.686550 17.960503 0.042070
						CHANNELS 3 Xrotation Yrotation Zrotation
						JOINT Neck
						{
							OFFSET -7.316279 17.001503 -1.400528
							CHANNELS 3 Xrotation Yrotation Zrotation
							JOINT Head
							{
								OFFSET -6.098700 9.306229 -3.031670
								CHANNELS 3 Xrotation Yrotation Zrotation
								End Site
								{
									OFFSET 0.000000 0.100006 0.000000
								}
							}
						}
						JOINT RightShoulder
						{
							OFFSET -6.760039 16.941399 -4.999828
							CHANNELS 3 Xrotation Yrotation Zrotation
							JOINT RightArm
							{
								OFFSET 0.489277 -2.201508 -15.922297
								CHANNELS 3 Xrotation Yrotation Zrotation
								JOINT RightForeArm
								{
									OFFSET -2.989574 -10.708099 -27.222504
									CHANNELS 3 Xrotation Yrotation Zrotation
									JOINT RightHand
									{
										OFFSET -16.460897 -1.037483 -18.691303
										CHANNELS 3 Xrotation Yrotation Zrotation
										End Site
										{
											OFFSET 0.000000 0.099998 0.000000
										}
									}
								}
							}
						}
						JOINT LeftShoulder
						{
							OFFSET -7.885489 17.050606 2.191582
							CHANNELS 3 Xrotation Yrotation Zrotation
							JOINT LeftArm
							{
								OFFSET -1.364616 -0.650391 16.010002
								CHANNELS 3 Xrotation Yrotation Zrotation
								JOINT LeftForeArm
								{
									OFFSET 10.674902 -21.284302 17.253698
									CHANNELS 3 Xrotation Yrotation Zrotation
									JOINT LeftHand
									{
										OFFSET -19.894804 -7.463623 -13.034296
										CHANNELS 3 Xrotation Yrotation Zrotation
										End Site
										{
											OFFSET 0.000000 0.099998 0.000000
										}
									}
								}
							}
						}
					}
				}
			}
			JOINT RightUpLeg
			{
				OFFSET 0.722707 1.623497 -9.391540
				CHANNELS 3 Xrotation Yrotation Zrotation
				JOINT RightLeg
				{
					OFFSET -10.545103 -38.636700 -20.571999
					CHANNELS 3 Xrotation Yrotation Zrotation
					JOINT RightFoot
					{
						OFFSET 5.458568 -37.808498 -15.371899
						CHANNELS 3 Xrotation Yrotation Zrotation
						JOINT RightToe
						{
							OFFSET -12.962801 -11.154400 -5.629002
							CHANNELS 3 Xrotation Yrotation Zrotation
							End Site
							{
								OFFSET 0.000000 0.100000 0.000000
							}
						}
					}
				}
			}
			JOINT LeftUpLeg
			{
				OFFSET -0.722706 -1.623497 9.391530
				CHANNELS 3 Xrotation Yrotation Zrotation
				JOINT LeftLeg
				{
					OFFSET -20.628298 -38.695202 10.215404
					CHANNELS 3 Xrotation Yrotation Zrotation
					JOINT LeftFoot
					{
						OFFSET 19.872700 -35.982101 -2.435715
						CHANNELS 3 Xrotation Yrotation Zrotation
						JOINT LeftToe
						{
							OFFSET -14.121998 -9.585570 5.729294
							CHANNELS 3 Xrotation Yrotation Zrotation
							End Site
							{
								OFFSET 0.000000 0.100000 0.000000
							}
						}
					}
				}
			}
		}
	}
}
MOTION
Frames: 5
Frame Time: 0.041667
0.992686 0.000000 41.202999 -0.000000 0.000000 -0.000000 -5.062512 -2.419658 1.660038 0.337747 0.072580 0.038220 1.490196 0.298747 0.424213 1.966815 0.756300 0.612590 1.290807 0.622225 0.419575 -0.281773 0.271662 0.160424 -0.696733 0.515670 0.028015 -1.728807 -0.744599 0.038141 1.078399 4.471260 1.804619 -2.269304 -5.468874 2.287564 -1.691819 -0.285146 -1.737328 0.070693 -0.932153 0.036397 -6.841915 1.897651 -0.017022 1.248636 -0.648762 -1.550318 0.908236 0.983746 0.274049 -13.872751 -8.165965 -10.817811 -3.205886 -6.157181 12.676319 -15.741960 0.114871 6.255959 26.373362 0.220225 11.188926 11.070875 5.418032 3.218860 -5.070697 -0.917248 -16.112440 34.393141 8.793384 9.779648 0.283755 0.008450 5.422789 
0.293304 0.000000 49.119301 -0.000000 0.000000 -0.000000 -6.116212 -1.737166 2.071634 -0.026410 -0.009247 -0.003713 2.039038 0.390608 0.016395 2.775837 0.768098 0.052624 1.850818 0.639828 0.054807 -0.258624 0.144291 0.440067 -0.902494 0.272453 0.508635 -0.992358 -0.903569 0.053725 0.583510 4.221227 2.330951 -2.561231 -6.216362 2.582092 -1.695551 -0.585197 -1.868567 -0.130581 -0.757419 0.005784 -7.186755 1.352887 0.627983 1.441576 -0.752848 -1.790554 0.512805 0.471431 0.173335 -13.917562 -7.058601 -7.399964 -2.331865 -4.121549 8.667312 -12.133868 1.357905 1.175911 29.803623 1.140874 0.984164 7.925706 5.173517 4.073155 -5.486029 -0.928431 -17.409826 23.673458 8.088804 13.086941 0.237503 0.005227 4.537550 
0.000015 0.000000 56.822300 -0.000000 0.000000 -0.000000 -6.433028 -1.591433 2.551220 -0.720276 -0.153482 -0.083086 2.470946 0.664816 -0.338934 3.441871 0.900757 -0.466030 2.307697 0.736263 -0.290119 -0.154895 0.098273 0.491797 -0.774766 0.204902 0.706448 -0.613242 -0.535397 0.034656 0.817857 3.578727 2.683157 -2.715544 -6.615717 2.737839 -1.766162 -0.742639 -2.061767 -0.237378 -0.313750 -0.018940 -7.375885 1.047388 1.082383 1.686035 -0.886290 -2.095282 0.198890 0.074045 0.024316 -13.070470 -6.997588 -5.782357 -1.707701 -2.868220 6.121910 -2.748655 5.215547 -5.491510 25.127846 2.108497 -1.061418 3.757833 4.033076 4.604173 -5.589505 -0.929747 -17.732879 17.349065 7.653156 16.174914 0.191218 0.002740 3.652317 
1.851557 0.000000 62.726200 -0.000000 0.000000 -0.000000 -6.353380 -1.932706 2.883940 -1.173351 -0.249640 -0.136303 2.699069 0.947839 -0.550223 3.793864 1.122950 -0.793382 2.543479 0.888562 -0.514991 0.037173 0.144057 0.290616 -0.282695 0.336684 0.589512 -0.891073 0.425898 -0.031673 2.072377 2.550818 2.835011 -2.761089 -6.734125 2.783790 -2.070691 -0.767199 -2.457998 -0.126228 0.410953 -0.027709 -7.161970 0.936535 1.116522 1.769253 -0.932055 -2.199037 -0.091257 -0.255247 -0.149179 -11.275544 -6.870397 -6.557004 -1.985379 -3.408863 7.228086 9.908919 9.753005 -14.521623 14.100606 2.721066 6.005359 -0.979418 2.697407 4.719795 -5.403071 -0.926940 -17.150742 15.608953 8.716266 19.174380 0.146668 0.001003 2.801111 
3.065598 0.000000 67.534401 -0.000000 0.000000 -0.000000 -5.502671 -2.681954 2.451616 -1.021474 -0.217309 -0.118355 2.465008 1.167411 -0.559573 3.434101 1.465139 -0.849920 2.286312 1.101885 -0.574461 0.196244 0.159445 0.206670 0.041977 0.382707 0.611242 -1.299502 1.228162 -0.081555 3.337054 1.871360 2.903989 -2.839108 -6.937620 2.862557 -2.651121 -0.896183 -3.114900 0.417347 1.146739 0.001364 -5.878022 1.128645 1.097475 1.268341 -0.659352 -1.574846 -0.915174 -1.057636 -0.229412 -10.166352 -7.749157 -9.785983 -3.055872 -5.778727 11.941161 16.996379 11.166988 -20.566004 7.357234 2.318997 10.403913 -6.379984 2.013510 4.879882 -4.821890 -0.906041 -15.334803 14.936396 10.798130 23.241397 -0.021200 -0.147928 3.740021 
